PathFileType	4	(X/Y/Z)	/Users/visionmauri/1_9_1_f_Sports2D/1_9_1_f_Sports2D_px_person00.trc
DataRate	CameraRate	NumFrames	NumMarkers	Units	OrigDataRate	OrigDataStartFrame	OrigNumFrames
30.0	30.0	5	22	m	30.0	174	349
Frame#	Time	Hip			RHip			RKnee			RAnkle			RBigToe			RSmallToe			RHeel			LHip			LKnee			LAnkle			LBigToe			LSmallToe			LHeel			Neck			Head			Nose			RShoulder			RElbow			RWrist			LShoulder			LElbow			LWrist			
		X1	Y1	Z1	X2	Y2	Z2	X3	Y3	Z3	X4	Y4	Z4	X5	Y5	Z5	X6	Y6	Z6	X7	Y7	Z7	X8	Y8	Z8	X9	Y9	Z9	X10	Y10	Z10	X11	Y11	Z11	X12	Y12	Z12	X13	Y13	Z13	X14	Y14	Z14	X15	Y15	Z15	X16	Y16	Z16	X17	Y17	Z17	X18	Y18	Z18	X19	Y19	Z19	X20	Y20	Z20	X21	Y21	Z21	X22	Y22	Z22
174	5.816666666666666	566.2932470018247	801.5176378230866	0.0	564.1469597856633	802.7721247841646	0.0	554.9371279597356	989.4264382338622	0.0	620.1809531234024	1164.066518362378	0.0	581.0105105210888	1223.2715055871986	0.0	595.3020567752898	1211.4643833988512	0.0	636.5732436392882	1190.6794996897618	0.0	568.3069858658296	802.6007525567078	0.0	530.070068675802	980.8871872054399	0.0	529.1655438337248	1173.5548745402791	0.0	448.7252680017796	1212.8846075202807	0.0	465.01295891263663	1216.5637904729851	0.0	545.118084246626	1206.8003498020655	0.0	519.5260015293873	527.0823204382419	0.0	452.77597513779637	414.4749584377679	0.0	442.93628124623575	497.36033350729946	0.0	518.7881543689347	562.3965800967221	0.0	488.9850346309858	698.0390877944296	0.0	422.4632225447002	770.5331402614015	0.0	542.1899695735007	550.1693207958458	0.0	565.2665750960975	672.5692305007166	0.0	543.622518556456	790.2938583195244	0.0
175	5.850095785440613	562.539180335493	801.2651404522351	0.0	549.8013334671076	799.0455737657468	0.0	540.1315925052131	984.513459666852	0.0	614.0234185512064	1158.153894376558	0.0	543.7600518403572	1218.8511503303614	0.0	560.696225246889	1205.9360536399818	0.0	632.6767454894903	1185.243177314743	0.0	568.0959272632172	799.0859575235045	0.0	527.1697648693698	980.1581239019034	0.0	552.8399618040538	1164.932784792164	0.0	458.2777267031322	1212.0253414236615	0.0	474.2320150172959	1212.9108735894783	0.0	571.454607945238	1194.9723258807826	0.0	517.1388991172428	527.9877888006125	0.0	448.8413216647024	415.1491197580319	0.0	438.9211082874285	498.543235498845	0.0	514.4840667395969	563.9398230628553	0.0	487.4822346516877	698.5576074796543	0.0	421.5311423304128	770.9228634714038	0.0	540.1571014758568	550.2090943515176	0.0	561.6232711964979	671.8185322276154	0.0	537.7635614241557	784.0223164585268	0.0
176	5.883524904214559	559.529037942789	800.6712421241249	0.0	539.552336959524	795.8026015093996	0.0	525.1366964051645	978.5166108030538	0.0	605.5819969179394	1153.3209894700194	0.0	501.0572006261947	1213.4070421213953	0.0	518.0773744367856	1200.2888439276182	0.0	627.1097476713368	1181.2597729248962	0.0	568.7710146783533	796.4188837668216	0.0	521.7885572249071	978.7289404668517	0.0	584.0884609432629	1154.912676122448	0.0	474.5326880457742	1209.7412881444557	0.0	487.61761922026255	1208.5144270978128	0.0	605.3460730670579	1182.0028022626168	0.0	514.0304211062817	528.1760921947858	0.0	445.35376538248096	414.9095475797583	0.0	435.4506516820162	498.2897525422446	0.0	510.83332240002085	565.2242859920547	0.0	485.6461700150572	698.4078730067258	0.0	420.3532942833751	771.926809719498	0.0	538.9851128186565	549.7218558828989	0.0	559.3393566090825	672.0286125028717	0.0	535.6571451137669	777.0869700958532	0.0
177	5.916954022988506	556.9984364724185	799.5596816542759	0.0	535.1959935474102	794.7719732801819	0.0	511.7445747763361	974.2230556217758	0.0	596.274711618917	1149.9477356154937	0.0	480.31508866558477	1208.3694712316535	0.0	493.8703935276662	1196.326255814098	0.0	621.1605995683088	1177.5266661339042	0.0	569.0194289153723	795.9855447322265	0.0	515.1043107272062	977.9463711376552	0.0	598.8254717237635	1150.006509061145	0.0	485.0107657587716	1207.3560636548564	0.0	495.40936306064617	1206.4690720497138	0.0	621.4359639300304	1175.191005105821	0.0	510.7794140074575	527.5043646619338	0.0	443.24810379830717	414.3095825704406	0.0	433.5892238524202	497.36045488528276	0.0	508.46573548942877	564.6884444984125	0.0	484.43402079268	697.5898394256978	0.0	419.3237521390942	772.5140381846132	0.0	537.3962322310196	548.3042691831095	0.0	557.3979929734614	671.7684111447776	0.0	533.812757608492	774.1421763568698	0.0
178	5.950383141762452	554.1544301718702	798.094796188375	0.0	533.1246646072486	794.583214822003	0.0	500.85811367491334	972.0888838994422	0.0	585.6756106819124	1148.4738196371477	0.0	481.3077336569692	1204.2508016129013	0.0	490.6523986948828	1194.3851211344625	0.0	613.5958990476631	1175.5819457639006	0.0	567.6197746926608	796.0095875376873	0.0	508.775126430747	976.9169258328642	0.0	589.3827252737929	1150.5878945584984	0.0	482.82517168179254	1206.3443559750024	0.0	492.8369343368268	1206.8517120574381	0.0	612.2945510690404	1176.1336697620031	0.0	507.48930380152257	526.3073158629472	0.0	441.85799917189075	413.49707814181414	0.0	431.6853591203173	496.47721679753687	0.0	506.04184657321485	563.2316634102206	0.0	484.7088581988112	696.0425780169418	0.0	419.18940000393223	772.0242857227071	0.0	535.1823704043311	546.342501887446	0.0	555.964766242486	670.9951819232638	0.0	532.7997780887273	773.0192745254797	0.0
